Coordinates
version=1
nRows=6
nColumns=36
inDegrees=yes

Units are S.I. units (second, meters, Newtons, ...)
If the header above contains a line with 'inDegrees', this indicates whether rotational values are in degrees (yes) or radians (no).

endheader
time	pelvis_tilt	pelvis_list	pelvis_rotation	pelvis_tx	pelvis_ty	pelvis_tz	hip_flexion_r	hip_adduction_r	hip_rotation_r	knee_angle_r	knee_angle_r_beta	ankle_angle_r	subtalar_angle_r	mtp_angle_r	hip_flexion_l	hip_adduction_l	hip_rotation_l	knee_angle_l	knee_angle_l_beta	ankle_angle_l	subtalar_angle_l	mtp_angle_l	lumbar_extension	lumbar_bending	lumbar_rotation	arm_flex_r	arm_add_r	arm_rot_r	elbow_flex_r	pro_sup_r	arm_flex_l	arm_add_l	arm_rot_l	elbow_flex_l	pro_sup_l
      5.08333330	     -6.58995989	      9.26869954	     -2.04893279	      1.35812993	      0.91355242	     -0.03557407	     15.18635949	     -3.77672041	     -0.22030903	     22.61921574	      0.39477979	     22.21431567	     -2.19889523	     -7.49999987	     44.79928235	      4.48976690	     -1.65301723	     42.50774214	      0.74190006	     25.09783376	     -6.87712445	     -7.49999987	    -11.93103302	     -5.65590278	     -0.89472032	     37.41568209	     -2.91343796	     63.21134383	    124.93503765	    101.42155693	     49.19568714	      1.36584459	     58.90684449	    127.97922311	    105.63339493
      5.10000000	     -6.07289908	      9.63167279	     -2.44719989	      1.36416861	      0.91733606	     -0.03230060	     13.34638198	     -4.32494878	     -1.03318869	     20.27014919	      0.35378084	     22.42564575	     -0.52967160	     -7.49999987	     42.66812913	      4.69221669	     -2.16844315	     41.91018728	      0.73147076	     25.59105905	     -6.56450600	     -7.49999987	    -11.59816615	     -6.05024066	     -0.58542332	     37.43891360	     -2.84789699	     63.36003064	    124.88157383	    101.40705887	     48.93841383	      1.12132823	     59.27819829	    127.76877034	    105.57297832
      5.11666670	     -5.65931661	      9.78736700	     -2.87737395	      1.36380774	      0.91781938	     -0.03177493	     11.63605947	     -4.58036929	     -1.74066077	     17.90711334	      0.31253809	     22.54113694	      1.10634119	     -7.49999987	     40.76265167	      4.65271409	     -2.57305173	     41.46906340	      0.72377169	     26.16970941	     -6.12181833	     -7.49999987	    -11.20732232	     -6.27394949	     -0.35474124	     37.92547251	     -2.52503679	     63.17491800	    125.12155880	    101.33056652	     49.11279254	      0.82831970	     59.17450373	    127.52069550	    105.44255009
      5.13333330	     -5.60220013	      9.64923486	     -3.13019355	      1.36421210	      0.91583436	     -0.03169839	     10.60412903	     -4.49237965	     -2.44607263	     16.06890619	      0.28045532	     22.58698865	      2.42303243	     -7.49999987	     39.58938492	      4.36368219	     -2.85201074	     41.48436219	      0.72403871	     26.81115297	     -5.70033962	     -7.49999987	    -10.66339185	     -6.22594606	     -0.16757640	     38.32804174	     -2.36543805	     63.14113350	    125.50753983	    101.23575839	     49.36081010	      0.61918906	     59.76494711	    127.79383610	    105.36070077
      5.15000000	     -5.49134094	      9.50060101	     -3.29823694	      1.36921560	      0.91671597	     -0.02928245	      9.57125037	     -4.37554886	     -3.17335868	     14.48741900	      0.25285316	     22.63894291	      3.65743633	     -7.49999987	     38.61423510	      4.12434479	     -2.99761964	     41.59829462	      0.72602720	     27.47889434	     -5.48413245	     -7.49999987	    -10.24192664	     -6.19587488	      0.13832601	     38.08676354	     -2.27275205	     63.13487124	    125.62685434	     99.93662963	     49.19893464	      0.82287580	     60.45594906	    127.63473723	    104.64496333
      5.16666670	     -5.27904959	      8.93794125	     -3.35361050	      1.37005092	      0.91749727	     -0.02887206	      9.48335234	     -3.83857963	     -3.49515328	     14.78666391	      0.25807597	     22.61243798	      3.53636137	     -7.49999987	     37.44709746	      3.51113239	     -2.83733528	     41.56085468	      0.72537375	     28.05468865	     -4.84774649	     -7.49999987	    -10.16306947	     -5.58360409	      0.46699381	     38.32878360	     -2.33230549	     63.47937468	    125.85971406	     99.59055349	     48.93809055	      1.19554173	     61.42583222	    127.85031121	    104.48577143
